<svg width="67" height="67" viewBox="0 0 67 67" fill="none" xmlns="http://www.w3.org/2000/svg">
<g clip-path="url(#clip0_428_448)">
<rect width="67.0002" height="67.0002" rx="18" transform="matrix(1 -2.47256e-06 -3.72142e-06 1 0.000488281 0)" fill="url(#paint0_linear_428_448)"/>
<path fill-rule="evenodd" clip-rule="evenodd" d="M29.6682 25.6872C25.391 28.8417 21.4541 33.0643 18.0413 38.4125C14.4763 43.9994 16.1152 51.4185 21.7021 54.9836C27.2889 58.5486 34.708 56.9096 38.2731 51.3228C43.6279 42.9313 49.1655 41.9494 53.5648 42.7148C59.1388 43.6845 65.2238 48.0209 68.7913 53.8626C72.3665 59.717 71.8282 63.9996 70.0731 66.4344C67.9156 69.4275 60.4827 74.8578 39.3646 74.8578C17.6284 74.8578 4.85919 72.4084 -2.25285 69.6959C-2.40255 69.6388 -2.54892 69.5819 -2.69203 69.5254C-2.37859 68.6426 -2.16424 67.7088 -2.0635 66.7358C-1.73082 63.5225 -1.66069 57.2852 -6.34593 52.5991C-12.3931 46.5508 -19.9908 48.5538 -23.5705 50.6723C-30.3583 54.6895 -33.9949 63.4859 -31.8691 72.0901C-29.5917 81.3085 -21.7103 87.9612 -10.8055 92.1202C0.193543 96.3152 16.2699 98.8578 39.3646 98.8578C63.0773 98.8578 80.5418 92.9546 89.5422 80.4685C98.945 67.4242 95.8253 52.082 89.2738 41.354C82.7146 30.6133 71.1275 21.4098 57.6784 19.0699C50.8305 17.8786 43.9359 18.5474 37.495 21.233L37.495 35.7241L39.3213 35.7241C41.1944 35.7241 42.7129 37.2426 42.7129 39.1157C42.7129 40.9889 41.1944 42.5073 39.3213 42.5073L33.5895 42.5073C33.5869 42.5073 33.5843 42.5073 33.5817 42.5073C33.5791 42.5073 33.5764 42.5073 33.5738 42.5073L27.842 42.5073C25.9688 42.5073 24.4504 40.9889 24.4504 39.1157C24.4504 37.2426 25.9688 35.7241 27.842 35.7241L29.6683 35.7241L29.6682 25.6872ZM-8.75901 65.8128C-8.75766 65.8123 -8.74534 65.8311 -8.7261 65.8708C-8.75074 65.8332 -8.76036 65.8134 -8.75901 65.8128ZM-25.9301 64.2051C-25.9355 64.0329 -25.9264 63.9355 -25.9205 63.9298C-25.9146 63.9241 -25.9119 64.0102 -25.9301 64.2051Z" fill="white"/>
<path d="M29.6685 12.5052C29.6685 10.3439 31.4205 8.5918 33.5819 8.5918C35.7432 8.5918 37.4953 10.3439 37.4953 12.5052L37.4953 21.1147L29.6685 25.289L29.6685 12.5052Z" fill="white"/>
<rect width="7.86498" height="18.4961" rx="3.93249" transform="matrix(0.760267 0.64961 -0.760267 0.649611 33.2949 7.02637)" fill="white"/>
</g>
<defs>
<linearGradient id="paint0_linear_428_448" x1="5.44377" y1="5.02501" x2="63.2318" y2="46.8997" gradientUnits="userSpaceOnUse">
<stop stop-color="#0061FD"/>
<stop offset="0.473958" stop-color="#8E63E9"/>
<stop offset="1" stop-color="#C74646"/>
</linearGradient>
<clipPath id="clip0_428_448">
<rect width="67.0002" height="67.0002" rx="18" transform="matrix(1 -2.47256e-06 -3.72142e-06 1 0.000488281 0)" fill="white"/>
</clipPath>
</defs>
</svg>
