<svg width="60" height="60" viewBox="0 0 60 60" fill="none" xmlns="http://www.w3.org/2000/svg">
<rect width="60" height="60" rx="30" fill="url(#paint0_linear_428_479)"/>
<rect x="12" y="12" width="36" height="36" rx="18" fill="white"/>
<mask id="path-3-inside-1_428_479" fill="white">
<path d="M26.3664 29.1218C27.0086 29.1218 27.5417 28.5954 27.4063 27.9676C27.186 26.9453 26.6756 25.999 25.9247 25.2481C24.8974 24.2207 23.5039 23.6436 22.051 23.6436C20.5981 23.6436 19.2047 24.2207 18.1773 25.2481C17.4264 25.999 16.9161 26.9453 16.6957 27.9676C16.5604 28.5954 17.0934 29.1218 17.7357 29.1218C18.3779 29.1218 18.8791 28.5841 19.1107 27.9851C19.2676 27.5792 19.5083 27.2063 19.8219 26.8927C20.4131 26.3015 21.2149 25.9694 22.051 25.9694C22.8871 25.9694 23.6889 26.3015 24.2801 26.8927C24.5937 27.2063 24.8345 27.5792 24.9914 27.9851C25.223 28.5841 25.7241 29.1218 26.3664 29.1218Z"/>
</mask>
<path d="M26.3664 29.1218C27.0086 29.1218 27.5417 28.5954 27.4063 27.9676C27.186 26.9453 26.6756 25.999 25.9247 25.2481C24.8974 24.2207 23.5039 23.6436 22.051 23.6436C20.5981 23.6436 19.2047 24.2207 18.1773 25.2481C17.4264 25.999 16.9161 26.9453 16.6957 27.9676C16.5604 28.5954 17.0934 29.1218 17.7357 29.1218C18.3779 29.1218 18.8791 28.5841 19.1107 27.9851C19.2676 27.5792 19.5083 27.2063 19.8219 26.8927C20.4131 26.3015 21.2149 25.9694 22.051 25.9694C22.8871 25.9694 23.6889 26.3015 24.2801 26.8927C24.5937 27.2063 24.8345 27.5792 24.9914 27.9851C25.223 28.5841 25.7241 29.1218 26.3664 29.1218Z" fill="#1921D2" stroke="#1921D2" stroke-width="1.36925" mask="url(#path-3-inside-1_428_479)"/>
<mask id="path-4-inside-2_428_479" fill="white">
<path d="M42.0138 29.1218C42.6561 29.1218 43.1891 28.5954 43.0538 27.9676C42.8334 26.9453 42.323 25.999 41.5722 25.2481C40.5448 24.2207 39.1514 23.6436 37.6985 23.6436C36.2456 23.6436 34.8521 24.2207 33.8248 25.2481C33.0739 25.999 32.5635 26.9453 32.3432 27.9676C32.2078 28.5954 32.7409 29.1218 33.3831 29.1218C34.0254 29.1218 34.5265 28.5841 34.7581 27.9851C34.915 27.5792 35.1558 27.2063 35.4694 26.8927C36.0606 26.3015 36.8624 25.9694 37.6985 25.9694C38.5346 25.9694 39.3364 26.3015 39.9276 26.8927C40.2412 27.2063 40.4819 27.5792 40.6388 27.9851C40.8704 28.5841 41.3716 29.1218 42.0138 29.1218Z"/>
</mask>
<path d="M42.0138 29.1218C42.6561 29.1218 43.1891 28.5954 43.0538 27.9676C42.8334 26.9453 42.323 25.999 41.5722 25.2481C40.5448 24.2207 39.1514 23.6436 37.6985 23.6436C36.2456 23.6436 34.8521 24.2207 33.8248 25.2481C33.0739 25.999 32.5635 26.9453 32.3432 27.9676C32.2078 28.5954 32.7409 29.1218 33.3831 29.1218C34.0254 29.1218 34.5265 28.5841 34.7581 27.9851C34.915 27.5792 35.1558 27.2063 35.4694 26.8927C36.0606 26.3015 36.8624 25.9694 37.6985 25.9694C38.5346 25.9694 39.3364 26.3015 39.9276 26.8927C40.2412 27.2063 40.4819 27.5792 40.6388 27.9851C40.8704 28.5841 41.3716 29.1218 42.0138 29.1218Z" fill="#1921D2" stroke="#1921D2" stroke-width="1.36925" mask="url(#path-4-inside-2_428_479)"/>
<defs>
<linearGradient id="paint0_linear_428_479" x1="22.7129" y1="22.7129" x2="55.5205" y2="58.0442" gradientUnits="userSpaceOnUse">
<stop stop-color="#000AFF"/>
<stop offset="1" stop-color="#6369FF"/>
</linearGradient>
</defs>
</svg>
