<svg width="60" height="60" viewBox="0 0 60 60" fill="none" xmlns="http://www.w3.org/2000/svg">
<rect width="60" height="60" rx="30" fill="url(#paint0_radial_428_486)"/>
<path d="M40.2252 46.0004H19.7748C16.5854 46.0004 14 43.4149 14 40.2256C14 37.4027 16.0409 34.9935 18.8254 34.5294L27.7222 33.0466C29.2303 32.7953 30.7697 32.7953 32.2778 33.0466L41.1746 34.5294C43.9591 34.9935 46 37.4027 46 40.2256C46 43.4149 43.4146 46.0004 40.2252 46.0004Z" fill="white" stroke="white" stroke-width="1.73195"/>
<path d="M23.1421 20.6667C23.1421 16.9848 26.1269 14 29.8088 14C33.4907 14 36.4754 16.9848 36.4754 20.6667C36.4754 24.3486 33.4907 27.3334 29.8088 27.3334C26.1269 27.3334 23.1421 24.3486 23.1421 20.6667Z" fill="white" stroke="white" stroke-width="1.73195"/>
<defs>
<radialGradient id="paint0_radial_428_486" cx="0" cy="0" r="1" gradientUnits="userSpaceOnUse" gradientTransform="translate(34.5 7.125) rotate(94.8645) scale(53.0661)">
<stop stop-color="#0AFF40"/>
<stop offset="1" stop-color="#67FF76"/>
</radialGradient>
</defs>
</svg>
